<?xml version="1.0" encoding="utf-8" standalone="no"?>
<!DOCTYPE svg PUBLIC "-//W3C//DTD SVG 1.1//EN"
  "http://www.w3.org/Graphics/SVG/1.1/DTD/svg11.dtd">
<!-- Created with matplotlib (http://matplotlib.org/) -->
<svg height="216pt" version="1.1" viewBox="0 0 216 216" width="216pt" xmlns="http://www.w3.org/2000/svg" xmlns:xlink="http://www.w3.org/1999/xlink">
 <defs>
  <style type="text/css">
*{stroke-linecap:butt;stroke-linejoin:round;}
  </style>
 </defs>
 <g id="figure_1">
  <g id="patch_1">
   <path d="M 0 216 
L 216 216 
L 216 0 
L 0 0 
z
" style="fill:#ffffff;"/>
  </g>
  <g id="axes_1">
   <g id="patch_2">
    <path d="M 27 189 
L 194.4 189 
L 194.4 25.92 
L 27 25.92 
z
" style="fill:#ffffff;"/>
   </g>
   <g id="matplotlib.axis_1">
    <g id="xtick_1">
     <g id="line2d_1">
      <defs>
       <path d="M 0 0 
L 0 3.5 
" id="m4fa9b57fa6" style="stroke:#000000;stroke-width:0.8;"/>
      </defs>
      <g>
       <use style="stroke:#000000;stroke-width:0.8;" x="38.67907" xlink:href="#m4fa9b57fa6" y="189"/>
      </g>
     </g>
     <g id="text_1">
      <!-- 0.70 -->
      <defs>
       <path d="M 31.78125 66.40625 
Q 24.171875 66.40625 20.328125 58.90625 
Q 16.5 51.421875 16.5 36.375 
Q 16.5 21.390625 20.328125 13.890625 
Q 24.171875 6.390625 31.78125 6.390625 
Q 39.453125 6.390625 43.28125 13.890625 
Q 47.125 21.390625 47.125 36.375 
Q 47.125 51.421875 43.28125 58.90625 
Q 39.453125 66.40625 31.78125 66.40625 
M 31.78125 74.21875 
Q 44.046875 74.21875 50.515625 64.515625 
Q 56.984375 54.828125 56.984375 36.375 
Q 56.984375 17.96875 50.515625 8.265625 
Q 44.046875 -1.421875 31.78125 -1.421875 
Q 19.53125 -1.421875 13.0625 8.265625 
Q 6.59375 17.96875 6.59375 36.375 
Q 6.59375 54.828125 13.0625 64.515625 
Q 19.53125 74.21875 31.78125 74.21875 
" id="DejaVuSans-30"/>
       <path d="M 10.6875 12.40625 
L 21 12.40625 
L 21 0 
L 10.6875 0 
z
" id="DejaVuSans-2e"/>
       <path d="M 8.203125 72.90625 
L 55.078125 72.90625 
L 55.078125 68.703125 
L 28.609375 0 
L 18.3125 0 
L 43.21875 64.59375 
L 8.203125 64.59375 
z
" id="DejaVuSans-37"/>
      </defs>
      <g transform="translate(27.546257 203.598437)scale(0.1 -0.1)">
       <use xlink:href="#DejaVuSans-30"/>
       <use x="63.623047" xlink:href="#DejaVuSans-2e"/>
       <use x="95.410156" xlink:href="#DejaVuSans-37"/>
       <use x="159.033203" xlink:href="#DejaVuSans-30"/>
      </g>
     </g>
    </g>
    <g id="xtick_2">
     <g id="line2d_2">
      <g>
       <use style="stroke:#000000;stroke-width:0.8;" x="97.074419" xlink:href="#m4fa9b57fa6" y="189"/>
      </g>
     </g>
     <g id="text_2">
      <!-- 0.85 -->
      <defs>
       <path d="M 31.78125 34.625 
Q 24.75 34.625 20.71875 30.859375 
Q 16.703125 27.09375 16.703125 20.515625 
Q 16.703125 13.921875 20.71875 10.15625 
Q 24.75 6.390625 31.78125 6.390625 
Q 38.8125 6.390625 42.859375 10.171875 
Q 46.921875 13.96875 46.921875 20.515625 
Q 46.921875 27.09375 42.890625 30.859375 
Q 38.875 34.625 31.78125 34.625 
M 21.921875 38.8125 
Q 15.578125 40.375 12.03125 44.71875 
Q 8.5 49.078125 8.5 55.328125 
Q 8.5 64.0625 14.71875 69.140625 
Q 20.953125 74.21875 31.78125 74.21875 
Q 42.671875 74.21875 48.875 69.140625 
Q 55.078125 64.0625 55.078125 55.328125 
Q 55.078125 49.078125 51.53125 44.71875 
Q 48 40.375 41.703125 38.8125 
Q 48.828125 37.15625 52.796875 32.3125 
Q 56.78125 27.484375 56.78125 20.515625 
Q 56.78125 9.90625 50.3125 4.234375 
Q 43.84375 -1.421875 31.78125 -1.421875 
Q 19.734375 -1.421875 13.25 4.234375 
Q 6.78125 9.90625 6.78125 20.515625 
Q 6.78125 27.484375 10.78125 32.3125 
Q 14.796875 37.15625 21.921875 38.8125 
M 18.3125 54.390625 
Q 18.3125 48.734375 21.84375 45.5625 
Q 25.390625 42.390625 31.78125 42.390625 
Q 38.140625 42.390625 41.71875 45.5625 
Q 45.3125 48.734375 45.3125 54.390625 
Q 45.3125 60.0625 41.71875 63.234375 
Q 38.140625 66.40625 31.78125 66.40625 
Q 25.390625 66.40625 21.84375 63.234375 
Q 18.3125 60.0625 18.3125 54.390625 
" id="DejaVuSans-38"/>
       <path d="M 10.796875 72.90625 
L 49.515625 72.90625 
L 49.515625 64.59375 
L 19.828125 64.59375 
L 19.828125 46.734375 
Q 21.96875 47.46875 24.109375 47.828125 
Q 26.265625 48.1875 28.421875 48.1875 
Q 40.625 48.1875 47.75 41.5 
Q 54.890625 34.8125 54.890625 23.390625 
Q 54.890625 11.625 47.5625 5.09375 
Q 40.234375 -1.421875 26.90625 -1.421875 
Q 22.3125 -1.421875 17.546875 -0.640625 
Q 12.796875 0.140625 7.71875 1.703125 
L 7.71875 11.625 
Q 12.109375 9.234375 16.796875 8.0625 
Q 21.484375 6.890625 26.703125 6.890625 
Q 35.15625 6.890625 40.078125 11.328125 
Q 45.015625 15.765625 45.015625 23.390625 
Q 45.015625 31 40.078125 35.4375 
Q 35.15625 39.890625 26.703125 39.890625 
Q 22.75 39.890625 18.8125 39.015625 
Q 14.890625 38.140625 10.796875 36.28125 
z
" id="DejaVuSans-35"/>
      </defs>
      <g transform="translate(85.941606 203.598437)scale(0.1 -0.1)">
       <use xlink:href="#DejaVuSans-30"/>
       <use x="63.623047" xlink:href="#DejaVuSans-2e"/>
       <use x="95.410156" xlink:href="#DejaVuSans-38"/>
       <use x="159.033203" xlink:href="#DejaVuSans-35"/>
      </g>
     </g>
    </g>
    <g id="xtick_3">
     <g id="line2d_3">
      <g>
       <use style="stroke:#000000;stroke-width:0.8;" x="155.469767" xlink:href="#m4fa9b57fa6" y="189"/>
      </g>
     </g>
     <g id="text_3">
      <!-- 1.00 -->
      <defs>
       <path d="M 12.40625 8.296875 
L 28.515625 8.296875 
L 28.515625 63.921875 
L 10.984375 60.40625 
L 10.984375 69.390625 
L 28.421875 72.90625 
L 38.28125 72.90625 
L 38.28125 8.296875 
L 54.390625 8.296875 
L 54.390625 0 
L 12.40625 0 
z
" id="DejaVuSans-31"/>
      </defs>
      <g transform="translate(144.336955 203.598437)scale(0.1 -0.1)">
       <use xlink:href="#DejaVuSans-31"/>
       <use x="63.623047" xlink:href="#DejaVuSans-2e"/>
       <use x="95.410156" xlink:href="#DejaVuSans-30"/>
       <use x="159.033203" xlink:href="#DejaVuSans-30"/>
      </g>
     </g>
    </g>
   </g>
   <g id="matplotlib.axis_2">
    <g id="ytick_1">
     <g id="line2d_4">
      <defs>
       <path d="M 0 0 
L -3.5 0 
" id="mced45e52fb" style="stroke:#000000;stroke-width:0.8;"/>
      </defs>
      <g>
       <use style="stroke:#000000;stroke-width:0.8;" x="27" xlink:href="#mced45e52fb" y="171.694884"/>
      </g>
     </g>
     <g id="text_4">
      <!-- 0.70 -->
      <g transform="translate(-2.265625 175.494102)scale(0.1 -0.1)">
       <use xlink:href="#DejaVuSans-30"/>
       <use x="63.623047" xlink:href="#DejaVuSans-2e"/>
       <use x="95.410156" xlink:href="#DejaVuSans-37"/>
       <use x="159.033203" xlink:href="#DejaVuSans-30"/>
      </g>
     </g>
    </g>
    <g id="ytick_2">
     <g id="line2d_5">
      <g>
       <use style="stroke:#000000;stroke-width:0.8;" x="27" xlink:href="#mced45e52fb" y="113.299535"/>
      </g>
     </g>
     <g id="text_5">
      <!-- 0.85 -->
      <g transform="translate(-2.265625 117.098754)scale(0.1 -0.1)">
       <use xlink:href="#DejaVuSans-30"/>
       <use x="63.623047" xlink:href="#DejaVuSans-2e"/>
       <use x="95.410156" xlink:href="#DejaVuSans-38"/>
       <use x="159.033203" xlink:href="#DejaVuSans-35"/>
      </g>
     </g>
    </g>
    <g id="ytick_3">
     <g id="line2d_6">
      <g>
       <use style="stroke:#000000;stroke-width:0.8;" x="27" xlink:href="#mced45e52fb" y="54.904186"/>
      </g>
     </g>
     <g id="text_6">
      <!-- 1.00 -->
      <g transform="translate(-2.265625 58.703405)scale(0.1 -0.1)">
       <use xlink:href="#DejaVuSans-31"/>
       <use x="63.623047" xlink:href="#DejaVuSans-2e"/>
       <use x="95.410156" xlink:href="#DejaVuSans-30"/>
       <use x="159.033203" xlink:href="#DejaVuSans-30"/>
      </g>
     </g>
    </g>
   </g>
   <g id="line2d_7">
    <defs>
     <path d="M 0 1.5 
C 0.397805 1.5 0.77937 1.341951 1.06066 1.06066 
C 1.341951 0.77937 1.5 0.397805 1.5 0 
C 1.5 -0.397805 1.341951 -0.77937 1.06066 -1.06066 
C 0.77937 -1.341951 0.397805 -1.5 0 -1.5 
C -0.397805 -1.5 -0.77937 -1.341951 -1.06066 -1.06066 
C -1.341951 -0.77937 -1.5 -0.397805 -1.5 0 
C -1.5 0.397805 -1.341951 0.77937 -1.06066 1.06066 
C -0.77937 1.341951 -0.397805 1.5 0 1.5 
z
" id="mf0b20a699f" style="stroke:#1f77b4;"/>
    </defs>
    <g clip-path="url(#pd879d86b5f)">
     <use style="fill:#1f77b4;stroke:#1f77b4;" x="112.30718" xlink:href="#mf0b20a699f" y="94.305083"/>
     <use style="fill:#1f77b4;stroke:#1f77b4;" x="76.337112" xlink:href="#mf0b20a699f" y="132.480739"/>
     <use style="fill:#1f77b4;stroke:#1f77b4;" x="132.282981" xlink:href="#mf0b20a699f" y="86.474872"/>
     <use style="fill:#1f77b4;stroke:#1f77b4;" x="96.312913" xlink:href="#mf0b20a699f" y="110.820212"/>
     <use style="fill:#1f77b4;stroke:#1f77b4;" x="90.53015" xlink:href="#mf0b20a699f" y="118.246433"/>
     <use style="fill:#1f77b4;stroke:#1f77b4;" x="54.560082" xlink:href="#mf0b20a699f" y="172.826329"/>
     <use style="fill:#1f77b4;stroke:#1f77b4;" x="110.505952" xlink:href="#mf0b20a699f" y="95.017498"/>
     <use style="fill:#1f77b4;stroke:#1f77b4;" x="74.535884" xlink:href="#mf0b20a699f" y="135.453323"/>
     <use style="fill:#1f77b4;stroke:#1f77b4;" x="123.118075" xlink:href="#mf0b20a699f" y="88.192388"/>
     <use style="fill:#1f77b4;stroke:#1f77b4;" x="87.148007" xlink:href="#mf0b20a699f" y="119.524445"/>
     <use style="fill:#1f77b4;stroke:#1f77b4;" x="143.093876" xlink:href="#mf0b20a699f" y="79.760512"/>
     <use style="fill:#1f77b4;stroke:#1f77b4;" x="107.123808" xlink:href="#mf0b20a699f" y="104.030256"/>
     <use style="fill:#1f77b4;stroke:#1f77b4;" x="101.341045" xlink:href="#mf0b20a699f" y="97.540727"/>
     <use style="fill:#1f77b4;stroke:#1f77b4;" x="65.370977" xlink:href="#mf0b20a699f" y="153.157747"/>
     <use style="fill:#1f77b4;stroke:#1f77b4;" x="121.316847" xlink:href="#mf0b20a699f" y="89.774328"/>
     <use style="fill:#1f77b4;stroke:#1f77b4;" x="85.346779" xlink:href="#mf0b20a699f" y="107.146695"/>
     <use style="fill:#1f77b4;stroke:#1f77b4;" x="105.866774" xlink:href="#mf0b20a699f" y="99.574964"/>
     <use style="fill:#1f77b4;stroke:#1f77b4;" x="69.896706" xlink:href="#mf0b20a699f" y="136.452564"/>
     <use style="fill:#1f77b4;stroke:#1f77b4;" x="125.842575" xlink:href="#mf0b20a699f" y="91.047102"/>
     <use style="fill:#1f77b4;stroke:#1f77b4;" x="89.872507" xlink:href="#mf0b20a699f" y="105.026855"/>
     <use style="fill:#1f77b4;stroke:#1f77b4;" x="84.089744" xlink:href="#mf0b20a699f" y="127.796202"/>
     <use style="fill:#1f77b4;stroke:#1f77b4;" x="48.119676" xlink:href="#mf0b20a699f" y="179.873567"/>
     <use style="fill:#1f77b4;stroke:#1f77b4;" x="104.065546" xlink:href="#mf0b20a699f" y="98.826605"/>
     <use style="fill:#1f77b4;stroke:#1f77b4;" x="68.095478" xlink:href="#mf0b20a699f" y="138.539647"/>
     <use style="fill:#1f77b4;stroke:#1f77b4;" x="116.677669" xlink:href="#mf0b20a699f" y="84.439486"/>
     <use style="fill:#1f77b4;stroke:#1f77b4;" x="80.707601" xlink:href="#mf0b20a699f" y="131.788045"/>
     <use style="fill:#1f77b4;stroke:#1f77b4;" x="136.65347" xlink:href="#mf0b20a699f" y="84.179974"/>
     <use style="fill:#1f77b4;stroke:#1f77b4;" x="100.683402" xlink:href="#mf0b20a699f" y="113.961103"/>
     <use style="fill:#1f77b4;stroke:#1f77b4;" x="94.900639" xlink:href="#mf0b20a699f" y="110.647786"/>
     <use style="fill:#1f77b4;stroke:#1f77b4;" x="58.930571" xlink:href="#mf0b20a699f" y="149.234742"/>
     <use style="fill:#1f77b4;stroke:#1f77b4;" x="114.876441" xlink:href="#mf0b20a699f" y="102.690332"/>
     <use style="fill:#1f77b4;stroke:#1f77b4;" x="78.906373" xlink:href="#mf0b20a699f" y="133.719112"/>
    </g>
   </g>
   <g id="patch_3">
    <path d="M 27 171.694884 
L 27 54.904186 
" style="fill:none;stroke:#000000;stroke-linecap:square;stroke-linejoin:miter;stroke-width:0.8;"/>
   </g>
   <g id="patch_4">
    <path d="M 38.67907 189 
L 155.469767 189 
" style="fill:none;stroke:#000000;stroke-linecap:square;stroke-linejoin:miter;stroke-width:0.8;"/>
   </g>
  </g>
 </g>
 <defs>
  <clipPath id="pd879d86b5f">
   <rect height="163.08" width="167.4" x="27" y="25.92"/>
  </clipPath>
 </defs>
</svg>
